<svg version="1.2" xmlns="http://www.w3.org/2000/svg" viewBox="0 0 1080 212" width="1080" height="212">
	<title>logo-svg</title>
	<style>
		.s0 { fill: #3252df } 
		.s1 { fill: #152c5b } 
	</style>
	<g id="Layer">
		<g id="Layer">
			<g id="Layer">
				<path id="Layer" fill-rule="evenodd" class="s0" d="m50.9 158.1q-13.5 0-24.3-4.6-10.7-4.8-16.9-13.4-6.1-8.7-6.1-20.2h23.4q0.8 8.6 6.8 14.2 6.1 5.6 17.1 5.6 11.3 0 17.7-5.4 6.3-5.6 6.3-14.2 0-6.8-4-11-3.8-4.2-9.8-6.6-5.8-2.3-16.2-5-13.1-3.4-21.3-6.9-8.1-3.6-13.9-11.1-5.8-7.5-5.8-20.1 0-11.5 5.8-20.2 5.8-8.6 16.2-13.2 10.4-4.6 24-4.6 19.5 0 31.8 9.8 12.5 9.6 13.8 26.5h-24.2q-0.6-7.3-6.9-12.5-6.4-5.2-16.8-5.2-9.4 0-15.4 4.8-5.9 4.8-5.9 13.9 0 6.1 3.6 10.2 3.9 3.8 9.6 6.1 5.8 2.3 15.8 5 13.3 3.7 21.6 7.3 8.4 3.7 14.2 11.4 6 7.5 6 20.2 0 10.2-5.6 19.2-5.4 9.1-16 14.7-10.4 5.3-24.6 5.3zm97.6-89.4v58.7q0 5.9 2.7 8.6 2.9 2.5 9.6 2.5h13.5v18.3h-17.3q-14.8 0-22.7-6.9-7.9-7-7.9-22.5v-58.7h-12.5v-17.9h12.5v-26.4h22.1v26.4h25.8v17.9zm38.7 34.6q0-16 6.5-28.3 6.8-12.3 18.1-19 11.6-6.9 25.4-6.9 12.5 0 21.8 5 9.4 4.8 15 12.1v-15.4h22.1v106h-22.1v-15.8q-5.6 7.5-15.2 12.5-9.6 5-22 5-13.6 0-25-6.9-11.3-7.1-18.1-19.6-6.5-12.7-6.5-28.7zm86.8 0.4q0-11-4.6-19.1-4.5-8-11.8-12.3-7.3-4.2-15.8-4.2-8.4 0-15.7 4.2-7.3 4.1-12 12.2-4.4 7.8-4.4 18.8 0 11 4.4 19.3 4.7 8.2 12 12.7 7.5 4.2 15.7 4.2 8.5 0 15.8-4.2 7.3-4.3 11.8-12.4 4.6-8.2 4.6-19.2zm146.3-52.9l-65 155.8h-22.7l21.6-51.5-41.8-104.3h24.4l29.9 80.8 30.9-80.8z"/>
			</g>
			<g id="Layer">
				<path id="Layer" fill-rule="evenodd" class="s1" d="m429.6 103.7q0-16.4 6.5-28.7 6.8-12.5 18.5-19.2 11.7-6.7 26.9-6.7 19.3 0 31.8 9.2 12.7 9 17.1 26h-23.6q-2.9-7.9-9.3-12.3-6.3-4.5-16-4.5-13.4 0-21.5 9.6-7.9 9.5-7.9 26.6 0 17.1 7.9 26.7 8.1 9.7 21.5 9.7 19.1 0 25.3-16.8h23.6q-4.6 16.2-17.3 25.8-12.7 9.4-31.6 9.4-15.2 0-26.9-6.7-11.7-6.9-18.5-19.2-6.5-12.5-6.5-28.9zm115.4-0.4q0-16 6.5-28.3 6.7-12.3 18.1-19 11.5-6.9 25.4-6.9 12.5 0 21.7 5 9.5 4.8 15 12.1v-15.4h22.2v106h-22.2v-15.8q-5.5 7.5-15.2 12.5-9.6 5-21.9 5-13.7 0-25-6.9-11.4-7.1-18.1-19.6-6.5-12.7-6.5-28.7zm86.7 0.4q0-11-4.6-19-4.4-8.1-11.7-12.4-7.3-4.2-15.8-4.2-8.5 0-15.8 4.2-7.3 4.1-11.9 12.2-4.4 7.8-4.4 18.8 0 11 4.4 19.3 4.6 8.2 11.9 12.7 7.5 4.2 15.8 4.2 8.5 0 15.8-4.2 7.3-4.3 11.7-12.4 4.6-8.2 4.6-19.2zm76.6-35v58.7q0 5.9 2.7 8.6 2.8 2.5 9.6 2.5h13.4v18.3h-17.3q-14.8 0-22.7-6.9-7.9-7-7.9-22.5v-58.7h-12.5v-17.9h12.5v-26.4h22.2v26.4h25.7v17.9zm57.2-32q-6 0-10-4-4-4-4-10 0-6 4-10 4-4 10-4 5.8 0 9.8 4 4.1 4 4.1 10 0 6-4.1 10-4 4-9.8 4zm10.8 14.1v106h-22v-106zm74.8 107.7q-15 0-27.1-6.7-12.1-6.9-19.1-19.2-6.9-12.5-6.9-28.9 0-16.2 7.1-28.7 7.2-12.5 19.5-19.2 12.3-6.7 27.5-6.7 15.2 0 27.5 6.7 12.3 6.7 19.4 19.2 7.1 12.5 7.1 28.7 0 16.2-7.3 28.7-7.3 12.5-20 19.4-12.5 6.7-27.7 6.7zm0-19q8.5 0 15.8-4.1 7.5-4 12.1-12.1 4.6-8.1 4.6-19.6 0-11.5-4.4-19.4-4.4-8.1-11.7-12.2-7.3-4-15.8-4-8.5 0-15.8 4-7.1 4.1-11.3 12.2-4.3 7.9-4.3 19.4 0 17.1 8.7 26.5 8.8 9.3 22.1 9.3zm130.2-90.4q12.5 0 22.3 5.2 10 5.1 15.6 15.3 5.6 10.2 5.6 24.7v62.5h-21.7v-59.3q0-14.2-7.2-21.7-7.1-7.7-19.4-7.7-12.3 0-19.6 7.7-7.1 7.5-7.1 21.7v59.3h-22v-106h22v12.1q5.4-6.5 13.6-10.2 8.5-3.6 17.9-3.6zm80.3 109q-5.9 0-10-4-4-4-4-10 0-6 4-10 4.1-4 10-4 5.8 0 9.8 4 4.1 4 4.1 10 0 6-4.1 10-4 4-9.8 4z"/>
			</g>
		</g>
	</g>
</svg>